<mxfile host="app.diagrams.net" agent="Mozilla/5.0 (Macintosh; Intel Mac OS X 10.15; rv:129.0) Gecko/20100101 Firefox/129.0" version="24.7.8" pages="4">
  <diagram name="Exquis" id="03dYKhVoTM7DIGuZSEkC">
    <mxGraphModel dx="754" dy="384" grid="1" gridSize="10" guides="1" tooltips="1" connect="1" arrows="1" fold="1" page="1" pageScale="1" pageWidth="827" pageHeight="1169" math="0" shadow="0">
      <root>
        <mxCell id="0" />
        <mxCell id="1" parent="0" />
        <mxCell id="Hq1kInDq9KoJ7vGKWbL7-11" value="" style="group" vertex="1" connectable="0" parent="1">
          <mxGeometry x="160" y="120" width="190" height="180" as="geometry" />
        </mxCell>
        <mxCell id="Hq1kInDq9KoJ7vGKWbL7-1" value="" style="shape=hexagon;perimeter=hexagonPerimeter2;whiteSpace=wrap;html=1;fixedSize=1;direction=south;size=20.909090909090963;" vertex="1" parent="Hq1kInDq9KoJ7vGKWbL7-11">
          <mxGeometry x="45" y="109.09090909090908" width="45" height="65.45454545454545" as="geometry" />
        </mxCell>
        <mxCell id="Hq1kInDq9KoJ7vGKWbL7-2" value="" style="shape=hexagon;perimeter=hexagonPerimeter2;whiteSpace=wrap;html=1;fixedSize=1;direction=south;size=20.90909090909099;" vertex="1" parent="Hq1kInDq9KoJ7vGKWbL7-11">
          <mxGeometry x="101.25" y="109.09090909090908" width="45" height="65.45454545454545" as="geometry" />
        </mxCell>
        <mxCell id="Hq1kInDq9KoJ7vGKWbL7-4" value="" style="shape=hexagon;perimeter=hexagonPerimeter2;whiteSpace=wrap;html=1;fixedSize=1;direction=south;size=20;" vertex="1" parent="Hq1kInDq9KoJ7vGKWbL7-11">
          <mxGeometry x="45" width="45" height="65.45454545454545" as="geometry" />
        </mxCell>
        <mxCell id="Hq1kInDq9KoJ7vGKWbL7-5" value="" style="curved=1;endArrow=classic;html=1;rounded=0;exitX=1;exitY=0.25;exitDx=0;exitDy=0;entryX=1;entryY=0.75;entryDx=0;entryDy=0;" edge="1" parent="Hq1kInDq9KoJ7vGKWbL7-11" source="Hq1kInDq9KoJ7vGKWbL7-1" target="Hq1kInDq9KoJ7vGKWbL7-2">
          <mxGeometry width="50" height="50" relative="1" as="geometry">
            <mxPoint x="95.625" y="223.6363636363636" as="sourcePoint" />
            <mxPoint x="123.75" y="196.36363636363635" as="targetPoint" />
            <Array as="points">
              <mxPoint x="78.75" y="174.54545454545453" />
              <mxPoint x="101.25" y="180" />
            </Array>
          </mxGeometry>
        </mxCell>
        <mxCell id="Hq1kInDq9KoJ7vGKWbL7-7" value="" style="curved=1;endArrow=classic;html=1;rounded=0;exitX=0.5;exitY=0;exitDx=0;exitDy=0;entryX=0.5;entryY=0;entryDx=0;entryDy=0;" edge="1" parent="Hq1kInDq9KoJ7vGKWbL7-11" source="Hq1kInDq9KoJ7vGKWbL7-2">
          <mxGeometry width="50" height="50" relative="1" as="geometry">
            <mxPoint x="168.75" y="141.81818181818178" as="sourcePoint" />
            <mxPoint x="118.125" y="87.27272727272725" as="targetPoint" />
            <Array as="points">
              <mxPoint x="163.125" y="141.81818181818178" />
              <mxPoint x="168.75" y="114.54545454545456" />
              <mxPoint x="140.625" y="87.27272727272727" />
            </Array>
          </mxGeometry>
        </mxCell>
        <mxCell id="Hq1kInDq9KoJ7vGKWbL7-8" value="" style="curved=1;endArrow=classic;html=1;rounded=0;exitX=0.375;exitY=1;exitDx=0;exitDy=0;entryX=0.5;entryY=1;entryDx=0;entryDy=0;" edge="1" parent="Hq1kInDq9KoJ7vGKWbL7-11" source="Hq1kInDq9KoJ7vGKWbL7-1">
          <mxGeometry width="50" height="50" relative="1" as="geometry">
            <mxPoint x="5.625" y="120" as="sourcePoint" />
            <mxPoint x="73.125" y="87.27272727272725" as="targetPoint" />
            <Array as="points">
              <mxPoint x="28.125" y="125.45454545454544" />
              <mxPoint x="28.125" y="87.27272727272727" />
              <mxPoint x="56.25" y="87.27272727272727" />
            </Array>
          </mxGeometry>
        </mxCell>
        <mxCell id="Hq1kInDq9KoJ7vGKWbL7-9" value="" style="curved=1;endArrow=classic;html=1;rounded=0;exitX=0.625;exitY=1;exitDx=0;exitDy=0;entryX=0.5;entryY=1;entryDx=0;entryDy=0;" edge="1" parent="Hq1kInDq9KoJ7vGKWbL7-11" source="Hq1kInDq9KoJ7vGKWbL7-1" target="Hq1kInDq9KoJ7vGKWbL7-4">
          <mxGeometry width="50" height="50" relative="1" as="geometry">
            <mxPoint x="-28.125" y="125.45454545454544" as="sourcePoint" />
            <mxPoint y="98.18181818181817" as="targetPoint" />
            <Array as="points">
              <mxPoint y="114.54545454545456" />
              <mxPoint x="5.625" y="38.18181818181818" />
            </Array>
          </mxGeometry>
        </mxCell>
        <mxCell id="O4vXQzl2haMAkv5I3pR4-4" value="" style="shape=hexagon;perimeter=hexagonPerimeter2;whiteSpace=wrap;html=1;fixedSize=1;direction=south;size=20;" vertex="1" parent="Hq1kInDq9KoJ7vGKWbL7-11">
          <mxGeometry x="72.5" y="54" width="45" height="65.45454545454545" as="geometry" />
        </mxCell>
        <mxCell id="O4vXQzl2haMAkv5I3pR4-1" value="d+1" style="text;html=1;align=center;verticalAlign=middle;whiteSpace=wrap;rounded=0;" vertex="1" parent="Hq1kInDq9KoJ7vGKWbL7-11">
          <mxGeometry x="12.5" y="60" width="60" height="30" as="geometry" />
        </mxCell>
        <mxCell id="O4vXQzl2haMAkv5I3pR4-2" value="d" style="text;html=1;align=center;verticalAlign=middle;whiteSpace=wrap;rounded=0;" vertex="1" parent="Hq1kInDq9KoJ7vGKWbL7-11">
          <mxGeometry x="130" y="79.09" width="60" height="30" as="geometry" />
        </mxCell>
        <mxCell id="Eu-lmuNuimqCG2wgEiJr-1" value="2d+1" style="text;html=1;align=center;verticalAlign=middle;whiteSpace=wrap;rounded=0;" vertex="1" parent="Hq1kInDq9KoJ7vGKWbL7-11">
          <mxGeometry x="-15" y="10" width="60" height="30" as="geometry" />
        </mxCell>
        <mxCell id="O4vXQzl2haMAkv5I3pR4-3" value="1" style="text;html=1;align=center;verticalAlign=middle;whiteSpace=wrap;rounded=0;" vertex="1" parent="1">
          <mxGeometry x="225" y="300" width="60" height="30" as="geometry" />
        </mxCell>
      </root>
    </mxGraphModel>
  </diagram>
  <diagram id="KCsU4NwVj2RT8qoUrRnB" name="HarmonicTable">
    <mxGraphModel dx="754" dy="384" grid="1" gridSize="10" guides="1" tooltips="1" connect="1" arrows="1" fold="1" page="1" pageScale="1" pageWidth="827" pageHeight="1169" math="0" shadow="0">
      <root>
        <mxCell id="0" />
        <mxCell id="1" parent="0" />
        <mxCell id="LueXefmQcw9ORAYid4Ko-1" value="" style="group" vertex="1" connectable="0" parent="1">
          <mxGeometry x="170" y="120" width="190" height="180" as="geometry" />
        </mxCell>
        <mxCell id="LueXefmQcw9ORAYid4Ko-2" value="" style="shape=hexagon;perimeter=hexagonPerimeter2;whiteSpace=wrap;html=1;fixedSize=1;direction=south;size=20.909090909090963;" vertex="1" parent="LueXefmQcw9ORAYid4Ko-1">
          <mxGeometry x="45" y="109.09090909090908" width="45" height="65.45454545454545" as="geometry" />
        </mxCell>
        <mxCell id="LueXefmQcw9ORAYid4Ko-3" value="" style="shape=hexagon;perimeter=hexagonPerimeter2;whiteSpace=wrap;html=1;fixedSize=1;direction=south;size=20.90909090909099;" vertex="1" parent="LueXefmQcw9ORAYid4Ko-1">
          <mxGeometry x="101.25" y="109.09090909090908" width="45" height="65.45454545454545" as="geometry" />
        </mxCell>
        <mxCell id="LueXefmQcw9ORAYid4Ko-4" value="" style="shape=hexagon;perimeter=hexagonPerimeter2;whiteSpace=wrap;html=1;fixedSize=1;direction=south;size=20;" vertex="1" parent="LueXefmQcw9ORAYid4Ko-1">
          <mxGeometry x="45" width="45" height="65.45454545454545" as="geometry" />
        </mxCell>
        <mxCell id="LueXefmQcw9ORAYid4Ko-5" value="" style="curved=1;endArrow=classic;html=1;rounded=0;exitX=1;exitY=0.25;exitDx=0;exitDy=0;entryX=1;entryY=0.75;entryDx=0;entryDy=0;" edge="1" parent="LueXefmQcw9ORAYid4Ko-1" source="LueXefmQcw9ORAYid4Ko-2" target="LueXefmQcw9ORAYid4Ko-3">
          <mxGeometry width="50" height="50" relative="1" as="geometry">
            <mxPoint x="95.625" y="223.6363636363636" as="sourcePoint" />
            <mxPoint x="123.75" y="196.36363636363635" as="targetPoint" />
            <Array as="points">
              <mxPoint x="78.75" y="174.54545454545453" />
              <mxPoint x="101.25" y="180" />
            </Array>
          </mxGeometry>
        </mxCell>
        <mxCell id="LueXefmQcw9ORAYid4Ko-6" value="" style="curved=1;endArrow=none;html=1;rounded=0;exitX=0.5;exitY=0;exitDx=0;exitDy=0;entryX=0.5;entryY=0;entryDx=0;entryDy=0;startArrow=classic;startFill=1;endFill=0;" edge="1" parent="LueXefmQcw9ORAYid4Ko-1" source="LueXefmQcw9ORAYid4Ko-3">
          <mxGeometry width="50" height="50" relative="1" as="geometry">
            <mxPoint x="168.75" y="141.81818181818178" as="sourcePoint" />
            <mxPoint x="118.125" y="87.27272727272725" as="targetPoint" />
            <Array as="points">
              <mxPoint x="163.125" y="141.81818181818178" />
              <mxPoint x="168.75" y="114.54545454545456" />
              <mxPoint x="140.625" y="87.27272727272727" />
            </Array>
          </mxGeometry>
        </mxCell>
        <mxCell id="LueXefmQcw9ORAYid4Ko-7" value="" style="curved=1;endArrow=classic;html=1;rounded=0;exitX=0.375;exitY=1;exitDx=0;exitDy=0;entryX=0.5;entryY=1;entryDx=0;entryDy=0;" edge="1" parent="LueXefmQcw9ORAYid4Ko-1" source="LueXefmQcw9ORAYid4Ko-2">
          <mxGeometry width="50" height="50" relative="1" as="geometry">
            <mxPoint x="5.625" y="120" as="sourcePoint" />
            <mxPoint x="73.125" y="87.27272727272725" as="targetPoint" />
            <Array as="points">
              <mxPoint x="28.125" y="125.45454545454544" />
              <mxPoint x="28.125" y="87.27272727272727" />
              <mxPoint x="56.25" y="87.27272727272727" />
            </Array>
          </mxGeometry>
        </mxCell>
        <mxCell id="LueXefmQcw9ORAYid4Ko-8" value="" style="curved=1;endArrow=classic;html=1;rounded=0;exitX=0.625;exitY=1;exitDx=0;exitDy=0;entryX=0.5;entryY=1;entryDx=0;entryDy=0;" edge="1" parent="LueXefmQcw9ORAYid4Ko-1" source="LueXefmQcw9ORAYid4Ko-2" target="LueXefmQcw9ORAYid4Ko-4">
          <mxGeometry width="50" height="50" relative="1" as="geometry">
            <mxPoint x="-28.125" y="125.45454545454544" as="sourcePoint" />
            <mxPoint y="98.18181818181817" as="targetPoint" />
            <Array as="points">
              <mxPoint y="114.54545454545456" />
              <mxPoint x="5.625" y="38.18181818181818" />
            </Array>
          </mxGeometry>
        </mxCell>
        <mxCell id="LueXefmQcw9ORAYid4Ko-9" value="" style="shape=hexagon;perimeter=hexagonPerimeter2;whiteSpace=wrap;html=1;fixedSize=1;direction=south;size=20;" vertex="1" parent="LueXefmQcw9ORAYid4Ko-1">
          <mxGeometry x="72.5" y="54" width="45" height="65.45454545454545" as="geometry" />
        </mxCell>
        <mxCell id="LueXefmQcw9ORAYid4Ko-10" value="d+1" style="text;html=1;align=center;verticalAlign=middle;whiteSpace=wrap;rounded=0;" vertex="1" parent="LueXefmQcw9ORAYid4Ko-1">
          <mxGeometry x="12.5" y="60" width="60" height="30" as="geometry" />
        </mxCell>
        <mxCell id="LueXefmQcw9ORAYid4Ko-11" value="d" style="text;html=1;align=center;verticalAlign=middle;whiteSpace=wrap;rounded=0;" vertex="1" parent="LueXefmQcw9ORAYid4Ko-1">
          <mxGeometry x="130" y="79.09" width="60" height="30" as="geometry" />
        </mxCell>
        <mxCell id="LueXefmQcw9ORAYid4Ko-12" value="1" style="text;html=1;align=center;verticalAlign=middle;whiteSpace=wrap;rounded=0;" vertex="1" parent="LueXefmQcw9ORAYid4Ko-1">
          <mxGeometry x="-15" y="10" width="60" height="30" as="geometry" />
        </mxCell>
        <mxCell id="LueXefmQcw9ORAYid4Ko-13" value="2d+1" style="text;html=1;align=center;verticalAlign=middle;whiteSpace=wrap;rounded=0;" vertex="1" parent="1">
          <mxGeometry x="236" y="300" width="60" height="30" as="geometry" />
        </mxCell>
      </root>
    </mxGraphModel>
  </diagram>
  <diagram id="WeIOOWYWz3BrN467DIyS" name="WickiHayden">
    <mxGraphModel dx="754" dy="384" grid="1" gridSize="10" guides="1" tooltips="1" connect="1" arrows="1" fold="1" page="1" pageScale="1" pageWidth="827" pageHeight="1169" math="0" shadow="0">
      <root>
        <mxCell id="0" />
        <mxCell id="1" parent="0" />
        <mxCell id="8Vi3Hh39wJFYHrPVvzAP-1" value="" style="group" vertex="1" connectable="0" parent="1">
          <mxGeometry x="190" y="160" width="190" height="180" as="geometry" />
        </mxCell>
        <mxCell id="8Vi3Hh39wJFYHrPVvzAP-2" value="" style="shape=hexagon;perimeter=hexagonPerimeter2;whiteSpace=wrap;html=1;fixedSize=1;direction=south;size=20.909090909090963;" vertex="1" parent="8Vi3Hh39wJFYHrPVvzAP-1">
          <mxGeometry x="45" y="109.09090909090908" width="45" height="65.45454545454545" as="geometry" />
        </mxCell>
        <mxCell id="8Vi3Hh39wJFYHrPVvzAP-3" value="" style="shape=hexagon;perimeter=hexagonPerimeter2;whiteSpace=wrap;html=1;fixedSize=1;direction=south;size=20.90909090909099;" vertex="1" parent="8Vi3Hh39wJFYHrPVvzAP-1">
          <mxGeometry x="101.25" y="109.09090909090908" width="45" height="65.45454545454545" as="geometry" />
        </mxCell>
        <mxCell id="8Vi3Hh39wJFYHrPVvzAP-4" value="" style="shape=hexagon;perimeter=hexagonPerimeter2;whiteSpace=wrap;html=1;fixedSize=1;direction=south;size=20;" vertex="1" parent="8Vi3Hh39wJFYHrPVvzAP-1">
          <mxGeometry x="45" width="45" height="65.45454545454545" as="geometry" />
        </mxCell>
        <mxCell id="8Vi3Hh39wJFYHrPVvzAP-5" value="" style="curved=1;endArrow=classic;html=1;rounded=0;exitX=1;exitY=0.25;exitDx=0;exitDy=0;entryX=1;entryY=0.75;entryDx=0;entryDy=0;" edge="1" parent="8Vi3Hh39wJFYHrPVvzAP-1" source="8Vi3Hh39wJFYHrPVvzAP-2" target="8Vi3Hh39wJFYHrPVvzAP-3">
          <mxGeometry width="50" height="50" relative="1" as="geometry">
            <mxPoint x="95.625" y="223.6363636363636" as="sourcePoint" />
            <mxPoint x="123.75" y="196.36363636363635" as="targetPoint" />
            <Array as="points">
              <mxPoint x="78.75" y="174.54545454545453" />
              <mxPoint x="101.25" y="180" />
            </Array>
          </mxGeometry>
        </mxCell>
        <mxCell id="8Vi3Hh39wJFYHrPVvzAP-6" value="" style="curved=1;endArrow=classic;html=1;rounded=0;exitX=0.5;exitY=0;exitDx=0;exitDy=0;entryX=0.5;entryY=0;entryDx=0;entryDy=0;" edge="1" parent="8Vi3Hh39wJFYHrPVvzAP-1" source="8Vi3Hh39wJFYHrPVvzAP-3">
          <mxGeometry width="50" height="50" relative="1" as="geometry">
            <mxPoint x="168.75" y="141.81818181818178" as="sourcePoint" />
            <mxPoint x="118.125" y="87.27272727272725" as="targetPoint" />
            <Array as="points">
              <mxPoint x="163.125" y="141.81818181818178" />
              <mxPoint x="168.75" y="114.54545454545456" />
              <mxPoint x="140.625" y="87.27272727272727" />
            </Array>
          </mxGeometry>
        </mxCell>
        <mxCell id="8Vi3Hh39wJFYHrPVvzAP-7" value="" style="curved=1;endArrow=classic;html=1;rounded=0;exitX=0.375;exitY=1;exitDx=0;exitDy=0;entryX=0.5;entryY=1;entryDx=0;entryDy=0;" edge="1" parent="8Vi3Hh39wJFYHrPVvzAP-1" source="8Vi3Hh39wJFYHrPVvzAP-2">
          <mxGeometry width="50" height="50" relative="1" as="geometry">
            <mxPoint x="5.625" y="120" as="sourcePoint" />
            <mxPoint x="73.125" y="87.27272727272725" as="targetPoint" />
            <Array as="points">
              <mxPoint x="28.125" y="125.45454545454544" />
              <mxPoint x="28.125" y="87.27272727272727" />
              <mxPoint x="56.25" y="87.27272727272727" />
            </Array>
          </mxGeometry>
        </mxCell>
        <mxCell id="8Vi3Hh39wJFYHrPVvzAP-8" value="" style="curved=1;endArrow=classic;html=1;rounded=0;exitX=0.625;exitY=1;exitDx=0;exitDy=0;entryX=0.5;entryY=1;entryDx=0;entryDy=0;" edge="1" parent="8Vi3Hh39wJFYHrPVvzAP-1" source="8Vi3Hh39wJFYHrPVvzAP-2" target="8Vi3Hh39wJFYHrPVvzAP-4">
          <mxGeometry width="50" height="50" relative="1" as="geometry">
            <mxPoint x="-28.125" y="125.45454545454544" as="sourcePoint" />
            <mxPoint y="98.18181818181817" as="targetPoint" />
            <Array as="points">
              <mxPoint y="114.54545454545456" />
              <mxPoint x="5.625" y="38.18181818181818" />
            </Array>
          </mxGeometry>
        </mxCell>
        <mxCell id="8Vi3Hh39wJFYHrPVvzAP-9" value="" style="shape=hexagon;perimeter=hexagonPerimeter2;whiteSpace=wrap;html=1;fixedSize=1;direction=south;size=20;" vertex="1" parent="8Vi3Hh39wJFYHrPVvzAP-1">
          <mxGeometry x="72.5" y="54" width="45" height="65.45454545454545" as="geometry" />
        </mxCell>
        <mxCell id="8Vi3Hh39wJFYHrPVvzAP-10" value="3d-2f&lt;sub&gt;3&lt;/sub&gt;(d)" style="text;html=1;align=center;verticalAlign=middle;whiteSpace=wrap;rounded=0;" vertex="1" parent="8Vi3Hh39wJFYHrPVvzAP-1">
          <mxGeometry x="12.5" y="60" width="60" height="30" as="geometry" />
        </mxCell>
        <mxCell id="8Vi3Hh39wJFYHrPVvzAP-12" value="5d-3f&lt;sub&gt;3&lt;/sub&gt;(d)" style="text;html=1;align=center;verticalAlign=middle;whiteSpace=wrap;rounded=0;" vertex="1" parent="8Vi3Hh39wJFYHrPVvzAP-1">
          <mxGeometry x="-15" y="10" width="60" height="30" as="geometry" />
        </mxCell>
        <mxCell id="8Vi3Hh39wJFYHrPVvzAP-13" value="d-f&lt;sub&gt;3&lt;/sub&gt;(d)" style="text;html=1;align=center;verticalAlign=middle;whiteSpace=wrap;rounded=0;" vertex="1" parent="1">
          <mxGeometry x="255" y="340" width="60" height="30" as="geometry" />
        </mxCell>
        <mxCell id="8Vi3Hh39wJFYHrPVvzAP-11" value="2d-f&lt;sub&gt;3&lt;/sub&gt;(d)" style="text;html=1;align=center;verticalAlign=middle;whiteSpace=wrap;rounded=0;" vertex="1" parent="1">
          <mxGeometry x="340" y="239.09" width="60" height="30" as="geometry" />
        </mxCell>
      </root>
    </mxGraphModel>
  </diagram>
  <diagram id="Z_w9Iao7kajwCzoAG7oD" name="BosanquetWilson">
    <mxGraphModel dx="754" dy="384" grid="1" gridSize="10" guides="1" tooltips="1" connect="1" arrows="1" fold="1" page="1" pageScale="1" pageWidth="827" pageHeight="1169" math="0" shadow="0">
      <root>
        <mxCell id="0" />
        <mxCell id="1" parent="0" />
        <mxCell id="P7J9OyF1p9nJkQtg0Xns-1" value="" style="group" vertex="1" connectable="0" parent="1">
          <mxGeometry x="310" y="140" width="190" height="180" as="geometry" />
        </mxCell>
        <mxCell id="P7J9OyF1p9nJkQtg0Xns-2" value="" style="shape=hexagon;perimeter=hexagonPerimeter2;whiteSpace=wrap;html=1;fixedSize=1;direction=south;size=20.909090909090963;" vertex="1" parent="P7J9OyF1p9nJkQtg0Xns-1">
          <mxGeometry x="45" y="109.09090909090908" width="45" height="65.45454545454545" as="geometry" />
        </mxCell>
        <mxCell id="P7J9OyF1p9nJkQtg0Xns-3" value="" style="shape=hexagon;perimeter=hexagonPerimeter2;whiteSpace=wrap;html=1;fixedSize=1;direction=south;size=20.90909090909099;" vertex="1" parent="P7J9OyF1p9nJkQtg0Xns-1">
          <mxGeometry x="101.25" y="109.09090909090908" width="45" height="65.45454545454545" as="geometry" />
        </mxCell>
        <mxCell id="P7J9OyF1p9nJkQtg0Xns-4" value="" style="shape=hexagon;perimeter=hexagonPerimeter2;whiteSpace=wrap;html=1;fixedSize=1;direction=south;size=20;" vertex="1" parent="P7J9OyF1p9nJkQtg0Xns-1">
          <mxGeometry x="45" width="45" height="65.45454545454545" as="geometry" />
        </mxCell>
        <mxCell id="P7J9OyF1p9nJkQtg0Xns-5" value="" style="curved=1;endArrow=classic;html=1;rounded=0;exitX=1;exitY=0.25;exitDx=0;exitDy=0;entryX=1;entryY=0.75;entryDx=0;entryDy=0;" edge="1" parent="P7J9OyF1p9nJkQtg0Xns-1" source="P7J9OyF1p9nJkQtg0Xns-2" target="P7J9OyF1p9nJkQtg0Xns-3">
          <mxGeometry width="50" height="50" relative="1" as="geometry">
            <mxPoint x="95.625" y="223.6363636363636" as="sourcePoint" />
            <mxPoint x="123.75" y="196.36363636363635" as="targetPoint" />
            <Array as="points">
              <mxPoint x="78.75" y="174.54545454545453" />
              <mxPoint x="101.25" y="180" />
            </Array>
          </mxGeometry>
        </mxCell>
        <mxCell id="P7J9OyF1p9nJkQtg0Xns-6" value="" style="curved=1;endArrow=none;html=1;rounded=0;exitX=0.5;exitY=0;exitDx=0;exitDy=0;entryX=0.5;entryY=0;entryDx=0;entryDy=0;startArrow=classic;startFill=1;endFill=0;" edge="1" parent="P7J9OyF1p9nJkQtg0Xns-1" source="P7J9OyF1p9nJkQtg0Xns-3">
          <mxGeometry width="50" height="50" relative="1" as="geometry">
            <mxPoint x="168.75" y="141.81818181818178" as="sourcePoint" />
            <mxPoint x="118.125" y="87.27272727272725" as="targetPoint" />
            <Array as="points">
              <mxPoint x="163.125" y="141.81818181818178" />
              <mxPoint x="168.75" y="114.54545454545456" />
              <mxPoint x="140.625" y="87.27272727272727" />
            </Array>
          </mxGeometry>
        </mxCell>
        <mxCell id="P7J9OyF1p9nJkQtg0Xns-7" value="" style="curved=1;endArrow=classic;html=1;rounded=0;exitX=0.375;exitY=1;exitDx=0;exitDy=0;entryX=0.5;entryY=1;entryDx=0;entryDy=0;" edge="1" parent="P7J9OyF1p9nJkQtg0Xns-1" source="P7J9OyF1p9nJkQtg0Xns-2">
          <mxGeometry width="50" height="50" relative="1" as="geometry">
            <mxPoint x="5.625" y="120" as="sourcePoint" />
            <mxPoint x="73.125" y="87.27272727272725" as="targetPoint" />
            <Array as="points">
              <mxPoint x="28.125" y="125.45454545454544" />
              <mxPoint x="28.125" y="87.27272727272727" />
              <mxPoint x="56.25" y="87.27272727272727" />
            </Array>
          </mxGeometry>
        </mxCell>
        <mxCell id="P7J9OyF1p9nJkQtg0Xns-8" value="" style="curved=1;endArrow=classic;html=1;rounded=0;exitX=0.625;exitY=1;exitDx=0;exitDy=0;entryX=0.5;entryY=1;entryDx=0;entryDy=0;" edge="1" parent="P7J9OyF1p9nJkQtg0Xns-1" source="P7J9OyF1p9nJkQtg0Xns-2" target="P7J9OyF1p9nJkQtg0Xns-4">
          <mxGeometry width="50" height="50" relative="1" as="geometry">
            <mxPoint x="-28.125" y="125.45454545454544" as="sourcePoint" />
            <mxPoint y="98.18181818181817" as="targetPoint" />
            <Array as="points">
              <mxPoint y="114.54545454545456" />
              <mxPoint x="5.625" y="38.18181818181818" />
            </Array>
          </mxGeometry>
        </mxCell>
        <mxCell id="P7J9OyF1p9nJkQtg0Xns-9" value="" style="shape=hexagon;perimeter=hexagonPerimeter2;whiteSpace=wrap;html=1;fixedSize=1;direction=south;size=20;" vertex="1" parent="P7J9OyF1p9nJkQtg0Xns-1">
          <mxGeometry x="72.5" y="54" width="45" height="65.45454545454545" as="geometry" />
        </mxCell>
        <mxCell id="P7J9OyF1p9nJkQtg0Xns-10" value="f&lt;sub&gt;3&lt;/sub&gt;(d)" style="text;html=1;align=center;verticalAlign=middle;whiteSpace=wrap;rounded=0;" vertex="1" parent="P7J9OyF1p9nJkQtg0Xns-1">
          <mxGeometry x="12.5" y="60" width="60" height="30" as="geometry" />
        </mxCell>
        <mxCell id="P7J9OyF1p9nJkQtg0Xns-11" value="d-2f&lt;sub&gt;3&lt;/sub&gt;(d)" style="text;html=1;align=center;verticalAlign=middle;whiteSpace=wrap;rounded=0;" vertex="1" parent="P7J9OyF1p9nJkQtg0Xns-1">
          <mxGeometry x="146.25" y="79.09" width="60" height="30" as="geometry" />
        </mxCell>
        <mxCell id="P7J9OyF1p9nJkQtg0Xns-12" value="3f&lt;sub&gt;3&lt;/sub&gt;(d)-d" style="text;html=1;align=center;verticalAlign=middle;whiteSpace=wrap;rounded=0;" vertex="1" parent="P7J9OyF1p9nJkQtg0Xns-1">
          <mxGeometry x="-15" y="10" width="60" height="30" as="geometry" />
        </mxCell>
        <mxCell id="P7J9OyF1p9nJkQtg0Xns-13" value="d-f&lt;sub&gt;3&lt;/sub&gt;(d)" style="text;html=1;align=center;verticalAlign=middle;whiteSpace=wrap;rounded=0;" vertex="1" parent="1">
          <mxGeometry x="376" y="320" width="60" height="30" as="geometry" />
        </mxCell>
      </root>
    </mxGraphModel>
  </diagram>
</mxfile>
